<svg width="72" height="72" viewBox="0 0 72 72" fill="none" xmlns="http://www.w3.org/2000/svg">
<path d="M39.2381 17.442C41.989 14.395 47.0422 16.4883 46.833 20.5878C46.701 23.1694 48.8307 25.2988 51.4123 25.1671C55.5118 24.9576 57.6051 30.0111 54.558 32.762C52.6394 34.4942 52.6394 37.5059 54.558 39.2381C57.6051 41.9887 55.5118 47.0422 51.4123 46.833C48.8307 46.701 46.701 48.8307 46.833 51.4123C47.0425 55.5118 41.989 57.6051 39.2381 54.558C37.5059 52.6394 34.4942 52.6394 32.762 54.558C30.0111 57.6048 24.9579 55.5118 25.1671 51.4123C25.299 48.8307 23.1694 46.701 20.5878 46.833C16.4883 47.0425 14.395 41.989 17.442 39.2381C19.3607 37.5059 19.3607 34.4942 17.442 32.762C14.395 30.0111 16.4883 24.9579 20.5878 25.1671C23.1694 25.299 25.299 23.1694 25.1671 20.5878C24.9576 16.4883 30.0111 14.395 32.762 17.442C34.4942 19.3607 37.5059 19.3607 39.2381 17.442Z" fill="#FFC91D"/>
<path d="M54.5579 39.2381C52.6392 37.5059 52.6392 34.4943 54.5579 32.7621C57.1892 30.3864 55.9869 26.2933 52.9691 25.3562C53.4706 26.8755 53.1693 28.664 51.7454 29.9496C49.8267 31.6818 49.8267 34.6934 51.7454 36.4256C54.7924 39.1763 52.6991 44.2298 48.5996 44.0205C46.018 43.8886 43.8884 46.0182 44.0203 48.5998C44.2298 52.6993 39.1763 54.7927 36.4254 51.7456C34.6932 49.8266 31.6816 49.8266 29.9493 51.7456C28.6637 53.1696 26.8753 53.4708 25.356 52.9693C26.2931 55.9871 30.3861 57.1898 32.7618 54.5581C34.4941 52.6391 37.5057 52.6391 39.2379 54.5581C41.9888 57.6049 47.042 55.5118 46.8328 51.4123C46.7009 48.8307 48.8305 46.7011 51.4121 46.833C55.5116 47.0423 57.6049 41.989 54.5579 39.2381Z" fill="#FFA91A"/>
<path d="M54.5579 39.238C52.6392 37.5057 52.6392 34.4941 54.5579 32.7619C56.8926 30.6542 56.2094 27.1951 53.9187 25.7866C54.9556 27.4513 54.8963 29.7807 53.1517 31.3557C51.233 33.0879 51.233 36.0995 53.1517 37.8317C56.1987 40.5823 54.1054 45.6358 50.0059 45.4266C47.4243 45.2947 45.2947 47.4243 45.4266 50.0059C45.6361 54.1054 40.5826 56.1987 37.8317 53.1517C36.0995 51.2327 33.0879 51.2327 31.3557 53.1517C29.7809 54.896 27.4513 54.9556 25.7866 53.9187C27.1948 56.2097 30.6542 56.8926 32.7619 54.5579C34.4941 52.639 37.5057 52.639 39.238 54.5579C41.9889 57.6047 47.0421 55.5117 46.8328 51.4122C46.7009 48.8306 48.8306 46.7009 51.4122 46.8328C55.5117 47.0421 57.605 41.9889 54.5579 39.238Z" fill="#F79219"/>
<path d="M42.898 49.0931C50.1273 45.2835 52.8995 36.3348 49.09 29.1055C45.2805 21.8762 36.3317 19.104 29.1025 22.9135C21.8732 26.723 19.1009 35.6718 22.9105 42.9011C26.72 50.1303 35.6687 52.9026 42.898 49.0931Z" fill="#F79219"/>
<path d="M35.9999 46.9867C42.0677 46.9867 46.9867 42.0677 46.9867 35.9999C46.9867 29.9321 42.0677 25.0132 35.9999 25.0132C29.9321 25.0132 25.0132 29.9321 25.0132 35.9999C25.0132 42.0677 29.9321 46.9867 35.9999 46.9867Z" fill="#414042"/>
<path d="M22.9668 36.5625C22.6546 36.5625 22.4043 36.3094 22.4043 36C22.4043 35.9972 22.4043 35.9972 22.4043 35.9972C22.4071 35.6879 22.6574 35.4375 22.9668 35.4375C23.2734 35.4375 23.5265 35.6879 23.5293 35.9972C23.5293 35.9972 23.5293 35.9972 23.5293 36C23.5293 36.3094 23.2762 36.5625 22.9668 36.5625ZM23.158 34.3238C23.1271 34.3238 23.0934 34.321 23.0624 34.3154C22.9134 34.29 22.784 34.2085 22.6968 34.0847C22.6124 33.9638 22.5787 33.8147 22.604 33.6657C23.0259 31.2385 24.1059 28.9688 25.7315 27.0985C27.3402 25.245 29.413 23.8585 31.7305 23.0907C32.4702 22.8432 33.238 22.6632 34.0115 22.5479C34.3152 22.5029 34.6049 22.7222 34.6499 23.0232C34.6949 23.3297 34.4812 23.6166 34.1746 23.6616C33.463 23.7657 32.7599 23.9344 32.0849 24.1566C27.7059 25.6079 24.4996 29.326 23.7121 33.8569C23.6643 34.1297 23.4309 34.3238 23.158 34.3238Z" fill="#FFA91A"/>
<path d="M36.6687 28.8605L37.9532 32.8141C38.0474 33.1038 38.3171 33.2998 38.6217 33.2998H42.5274C43.2877 33.2998 43.6035 34.2726 42.9887 34.7193L39.8289 37.0151C39.5825 37.194 39.4793 37.5115 39.5735 37.8012L40.858 41.7547C41.0683 42.4025 40.327 42.941 39.776 42.5408L36.4609 40.1322C36.1858 39.9325 35.8135 39.9325 35.5384 40.1322L32.2233 42.5408C31.6723 42.941 30.931 42.4025 31.1413 41.7547L32.4258 37.8012C32.52 37.5115 32.4168 37.1943 32.1704 37.0151L29.0106 34.7193C28.3955 34.2724 28.7116 33.2998 29.4718 33.2998H33.3775C33.6821 33.2998 33.9521 33.1038 34.0461 32.8141L35.3305 28.8605C35.542 28.2128 36.4584 28.2128 36.6687 28.8605Z" fill="white"/>
<path d="M37.4709 5.9543V12.2512C37.4709 13.0635 36.8125 13.7219 36.0002 13.7219C35.1879 13.7219 34.5295 13.0635 34.5295 12.2512V5.9543C34.5295 5.14205 35.1879 4.48364 36.0002 4.48364C36.8125 4.48364 37.4709 5.14233 37.4709 5.9543ZM36.0002 58.278C35.1879 58.278 34.5295 58.9365 34.5295 59.7487V66.0456C34.5295 66.8579 35.1879 67.5163 36.0002 67.5163C36.8125 67.5163 37.4709 66.8579 37.4709 66.0456V59.7487C37.4709 58.9365 36.8125 58.278 36.0002 58.278ZM66.0459 34.5293H59.749C58.9367 34.5293 58.2783 35.1877 58.2783 36C58.2783 36.8122 58.9367 37.4706 59.749 37.4706H66.0459C66.8581 37.4706 67.5165 36.8122 67.5165 36C67.5165 35.1877 66.8578 34.5293 66.0459 34.5293ZM13.7224 36C13.7224 35.1877 13.064 34.5293 12.2517 34.5293H5.95454C5.14229 34.5293 4.48389 35.1877 4.48389 36C4.48389 36.8122 5.14229 37.4706 5.95454 37.4706H12.2514C13.0637 37.4706 13.7224 36.8122 13.7224 36ZM53.8329 20.2471L58.2856 15.7944C58.8599 15.2201 58.8599 14.2889 58.2856 13.7145C57.7113 13.1402 56.7801 13.1402 56.2058 13.7145L51.753 18.1673C51.1787 18.7416 51.1787 19.6728 51.753 20.2471C52.3273 20.8215 53.2585 20.8215 53.8329 20.2471ZM18.1675 51.7528L13.7148 56.2055C13.1405 56.7798 13.1405 57.711 13.7148 58.2854C14.2891 58.8597 15.2203 58.8597 15.7946 58.2854L20.2474 53.8326C20.8217 53.2583 20.8217 52.3271 20.2474 51.7528C19.6731 51.1785 18.7419 51.1785 18.1675 51.7528ZM53.8329 51.7528C53.2585 51.1785 52.3273 51.1785 51.753 51.7528C51.1787 52.3271 51.1787 53.2583 51.753 53.8326L56.2058 58.2854C56.7801 58.8597 57.7113 58.8597 58.2856 58.2854C58.8599 57.711 58.8599 56.7798 58.2856 56.2055L53.8329 51.7528ZM15.7946 13.7145C15.2203 13.1402 14.2891 13.1402 13.7148 13.7145C13.1405 14.2889 13.1405 15.2201 13.7148 15.7944L18.1675 20.2471C18.7419 20.8215 19.6731 20.8215 20.2474 20.2471C20.8217 19.6728 20.8217 18.7416 20.2474 18.1673L15.7946 13.7145Z" fill="#FFA91A"/>
<path d="M19.2704 51.3235C19.2872 51.7206 19.1441 52.1231 18.8412 52.4263L14.3884 56.879C14.0852 57.1822 13.6825 57.3254 13.2856 57.3085C13.3008 57.6637 13.4437 58.0141 13.7148 58.2853C14.2891 58.8596 15.2204 58.8596 15.7947 58.2853L20.2474 53.8325C20.8217 53.2582 20.8217 52.327 20.2474 51.7527C19.9763 51.4815 19.6256 51.3387 19.2704 51.3235Z" fill="#F79219"/>
<path d="M56.8793 14.3882L52.4265 18.841C52.1233 19.1442 51.7209 19.2873 51.3237 19.2702C51.3389 19.6254 51.4818 19.9758 51.7529 20.2472C52.3272 20.8215 53.2585 20.8215 53.8328 20.2472L58.2855 15.7945C58.8598 15.2202 58.8598 14.2889 58.2855 13.7146C58.0144 13.4435 57.6637 13.3003 57.3087 13.2852C57.3253 13.6826 57.1825 14.085 56.8793 14.3882Z" fill="#F79219"/>
<path d="M18.8411 16.761C19.4154 17.3353 19.4154 18.2665 18.8411 18.8408C18.2668 19.4151 17.3355 19.4151 16.7612 18.8408L18.1675 20.2471C18.7418 20.8214 19.673 20.8214 20.2473 20.2471C20.8216 19.6728 20.8216 18.7415 20.2473 18.1672L18.8411 16.761Z" fill="#F79219"/>
<path d="M13.7224 36C13.7224 35.2089 13.0978 34.5637 12.3148 34.5308C12.3156 34.5516 12.3162 34.5727 12.3162 34.5938C12.3162 35.406 11.6578 36.0644 10.8455 36.0644H4.54835C4.52726 36.0644 4.50616 36.0639 4.48535 36.063C4.51826 36.846 5.16345 37.4707 5.9546 37.4707H12.2515C13.0638 37.4707 13.7224 36.8123 13.7224 36Z" fill="#F79219"/>
<path d="M56.8796 54.7993C57.454 55.3736 57.454 56.3048 56.8796 56.8792C56.3053 57.4535 55.3741 57.4535 54.7998 56.8792L56.2061 58.2854C56.7804 58.8597 57.7116 58.8597 58.2859 58.2854C58.8602 57.7111 58.8602 56.7799 58.2859 56.2056L56.8796 54.7993Z" fill="#F79219"/>
<path d="M36.0635 58.2795C36.0643 58.3004 36.0649 58.3214 36.0649 58.3425V64.6394C36.0649 65.4517 35.4065 66.1101 34.5942 66.1101C34.5732 66.1101 34.5521 66.1095 34.5312 66.1087C34.5642 66.8917 35.2093 67.5164 36.0005 67.5164C36.8127 67.5164 37.4712 66.8579 37.4712 66.0457V59.7488C37.4712 58.9576 36.8465 58.3124 36.0635 58.2795Z" fill="#F79219"/>
<path d="M66.1089 34.5308C66.1098 34.5516 66.1103 34.5727 66.1103 34.5938C66.1103 35.406 65.4519 36.0644 64.6397 36.0644H58.3428C58.3217 36.0644 58.3006 36.0639 58.2798 36.063C58.3127 36.846 58.9579 37.4707 59.749 37.4707H66.0459C66.8582 37.4707 67.5166 36.8123 67.5166 36C67.5166 35.2089 66.8919 34.5637 66.1089 34.5308Z" fill="#F79219"/>
<path d="M36.0635 4.48535C36.0643 4.50616 36.0649 4.52726 36.0649 4.54835V10.8453C36.0649 11.6575 35.4065 12.3159 34.5942 12.3159C34.5732 12.3159 34.5521 12.3154 34.5312 12.3145C34.5642 13.0975 35.2093 13.7222 36.0005 13.7222C36.8127 13.7222 37.4712 13.0638 37.4712 12.2515V5.95432C37.4712 5.16345 36.8465 4.51826 36.0635 4.48535Z" fill="#F79219"/>
</svg>
